<!DOCTYPE svg PUBLIC "-//W3C//DTD SVG 1.1//EN" "http://www.w3.org/Graphics/SVG/1.1/DTD/svg11.dtd">
<!-- Uploaded to: SVG Repo, www.svgrepo.com, Transformed by: SVG Repo Mixer Tools -->
<svg width="800px" height="800px" viewBox="-1.6 -1.6 19.20 19.20" xmlns="http://www.w3.org/2000/svg" fill="#000000">
<g id="SVGRepo_bgCarrier" stroke-width="0" transform="translate(0,0), scale(1)">
<path transform="translate(-1.6, -1.6), scale(0.6)" d="M16,31.286769466267693C18.760578365051465,30.906382423215664,18.44425246793097,26.322909181278604,20.351600040835002,24.291281152271033C21.49006879865298,23.078631150042618,23.40451990693837,23.043713889855116,24.708380726169693,22.010961206728318C26.320325965946473,20.73418323558385,28.41516722069763,19.570146341613047,28.849624804454734,17.56022692741885C29.27974004991074,15.570396355911907,27.334677609271164,13.854795879032562,26.90135547666436,11.865661203584361C26.379335636234014,9.46936595869284,27.839580538319353,6.333352305255089,26.04075888795387,4.666326125295987C24.257286644572158,3.0135247370407146,21.25402142515519,4.004260093739208,18.85659839480252,4.41032472586835C16.974050808612848,4.7291820920375836,15.602090939367137,6.426690676945889,13.720824309990913,6.753020729843822C11.637511977868819,7.1143982256907226,9.179583655666702,5.124910850164642,7.480641169436128,6.383631786733684C5.838218850533286,7.6004777813724385,6.751103299541271,10.319039698027371,6.2372598945799425,12.297481055125507C5.783756072010089,14.043598081268556,4.478314879581241,15.583127103646877,4.624323352197237,17.381257219071358C4.771511396521924,19.19391404910834,5.927320291541079,20.74613163073674,7.04009375341572,22.184576737933874C8.115514710770185,23.574737509451317,9.736959650294583,24.331459582588508,10.96992579523959,25.584005666212825C12.774283439056381,27.417017147903696,13.451987354609846,31.63786654364447,16,31.286769466267693" fill="#80ec7e" strokewidth="0"/>
</g>
<g id="SVGRepo_tracerCarrier" stroke-linecap="round" stroke-linejoin="round" stroke="#CCCCCC" stroke-width="0.032"/>
<g id="SVGRepo_iconCarrier"> <path fill="#000000" fill-rule="evenodd" d="M7.0513157,1.68377223 C7.34140089,0.813516663 8.52958649,0.773959592 8.90131717,1.56510102 L8.9486823,1.68377223 L11.999,10.838 L13.0513157,7.68377223 C13.1750557,7.31255211 13.5021221,7.05117665 13.8839548,7.00672177 L13.999999,7 L14.999999,7 C15.5522837,7 15.999999,7.44771525 15.999999,8 C15.999999,8.51283584 15.6139588,8.93550716 15.1166201,8.99327227 L14.999999,9 L14.72,9 L12.9486823,14.3162278 C12.6585971,15.1864833 11.4704115,15.2260404 11.0986808,14.434899 L11.0513157,14.3162278 L7.999999,5.161 L5.9486823,11.3162278 C5.66748671,12.1598145 4.52796777,12.2312701 4.12404882,11.4837549 L4.07152231,11.3713907 L2.961,8.596 L2.89017501,8.6833128 C2.73101502,8.85332296 2.51533249,8.96455528 2.27945404,8.99286635 L2.16,9 L0.999999,9 C0.44771425,9 -1e-06,8.55228475 -1e-06,8 C-1e-06,7.48716416 0.38603919,7.06449284 0.883377875,7.00672773 L0.999999,7 L1.495,7 L2.07801673,5.61276791 C2.40786899,4.82740446 3.48655852,4.79910618 3.87548912,5.51555754 L3.92847569,5.62860932 L4.914,8.094 L7.0513157,1.68377223 Z"/> </g>
</svg>